<svg width="20" height="15" viewBox="0 0 20 15" fill="none" xmlns="http://www.w3.org/2000/svg">
<path d="M4.09134 0.681746C4.09134 0.500936 4.01951 0.327531 3.89166 0.199679C3.76381 0.0718267 3.5904 0 3.40959 0C3.22878 0 3.05538 0.0718267 2.92752 0.199679C2.79967 0.327531 2.72784 0.500936 2.72784 0.681746V12.6709L1.16528 11.107C1.03727 10.979 0.863646 10.9071 0.682607 10.9071C0.501568 10.9071 0.327945 10.979 0.199931 11.107C0.0719173 11.235 4.26542e-09 11.4086 0 11.5897C-4.26542e-09 11.7707 0.0719173 11.9443 0.199931 12.0724L2.92691 14.798L2.93646 14.8075C3.06446 14.9323 3.23659 15.0015 3.41537 15C3.59414 14.9984 3.76506 14.9263 3.8909 14.7993L6.61789 12.0724C6.68127 12.0091 6.73157 11.9339 6.76591 11.8512C6.80025 11.7684 6.81795 11.6797 6.81802 11.5902C6.81808 11.5006 6.8005 11.4119 6.76628 11.3291C6.73206 11.2463 6.68186 11.1711 6.61857 11.1077C6.55527 11.0443 6.48011 10.994 6.39737 10.9597C6.31464 10.9253 6.22595 10.9076 6.13637 10.9076C6.0468 10.9075 5.95808 10.9251 5.8753 10.9593C5.79252 10.9935 5.71728 11.0437 5.6539 11.107L4.09134 12.6709V0.681746ZM8.86356 2.04524C8.86356 1.86443 8.93538 1.69102 9.06324 1.56317C9.19109 1.43532 9.36449 1.36349 9.5453 1.36349H19.0897C19.2706 1.36349 19.444 1.43532 19.5718 1.56317C19.6997 1.69102 19.7715 1.86443 19.7715 2.04524C19.7715 2.22605 19.6997 2.39945 19.5718 2.5273C19.444 2.65516 19.2706 2.72698 19.0897 2.72698H9.5453C9.36449 2.72698 9.19109 2.65516 9.06324 2.5273C8.93538 2.39945 8.86356 2.22605 8.86356 2.04524ZM9.5453 5.45397C9.36449 5.45397 9.19109 5.52579 9.06324 5.65365C8.93538 5.7815 8.86356 5.9549 8.86356 6.13571C8.86356 6.31652 8.93538 6.48993 9.06324 6.61778C9.19109 6.74563 9.36449 6.81746 9.5453 6.81746H16.3628C16.5436 6.81746 16.717 6.74563 16.8448 6.61778C16.9727 6.48993 17.0445 6.31652 17.0445 6.13571C17.0445 5.9549 16.9727 5.7815 16.8448 5.65365C16.717 5.52579 16.5436 5.45397 16.3628 5.45397H9.5453ZM9.5453 9.54444C9.36449 9.54444 9.19109 9.61627 9.06324 9.74412C8.93538 9.87197 8.86356 10.0454 8.86356 10.2262C8.86356 10.407 8.93538 10.5804 9.06324 10.7083C9.19109 10.8361 9.36449 10.9079 9.5453 10.9079H13.6358C13.8166 10.9079 13.99 10.8361 14.1178 10.7083C14.2457 10.5804 14.3175 10.407 14.3175 10.2262C14.3175 10.0454 14.2457 9.87197 14.1178 9.74412C13.99 9.61627 13.8166 9.54444 13.6358 9.54444H9.5453ZM9.5453 13.6349C9.36449 13.6349 9.19109 13.7067 9.06324 13.8346C8.93538 13.9624 8.86356 14.1359 8.86356 14.3167C8.86356 14.4975 8.93538 14.6709 9.06324 14.7987C9.19109 14.9266 9.36449 14.9984 9.5453 14.9984H10.9088C11.0896 14.9984 11.263 14.9266 11.3909 14.7987C11.5187 14.6709 11.5905 14.4975 11.5905 14.3167C11.5905 14.1359 11.5187 13.9624 11.3909 13.8346C11.263 13.7067 11.0896 13.6349 10.9088 13.6349H9.5453Z" fill="#686D76"/>
</svg>
