<svg width="146" height="41" viewBox="0 0 146 41" fill="none" xmlns="http://www.w3.org/2000/svg">
<path d="M73.1687 4.92578H1.93405C1.827 4.92578 1.71995 4.92578 1.6129 4.92578C1.54724 4.92555 1.48229 4.91217 1.42189 4.88642C1.36149 4.86067 1.30687 4.82308 1.26125 4.77586C1.21563 4.72864 1.17993 4.67276 1.15628 4.61151C1.13263 4.55027 1.1215 4.48491 1.12354 4.41929C1.12354 3.4509 1.12354 2.48316 1.12354 1.51605C1.12099 1.45015 1.13158 1.38441 1.15469 1.32265C1.17781 1.26089 1.21299 1.20434 1.25818 1.15631C1.30337 1.10828 1.35767 1.06972 1.41791 1.04289C1.47816 1.01605 1.54314 1.00147 1.60908 1C1.67981 1 1.75054 1 1.82318 1H144.507C145.08 1 145.214 1.13952 145.214 1.73011C145.214 2.54241 145.214 3.35279 145.214 4.16509C145.214 4.80345 145.092 4.9296 144.484 4.9296H73.1687V4.92578Z" fill="#FF0000"/>
<path d="M73.2509 39.6079H2.01816C1.37396 39.6079 1.23633 39.4646 1.23633 38.809C1.23633 37.9974 1.23633 37.1863 1.23633 36.3759C1.23633 35.8637 1.42749 35.6802 1.92832 35.6802H144.61C145.157 35.6802 145.325 35.8503 145.325 36.4065V38.8912C145.325 39.4283 145.151 39.6022 144.619 39.6022L73.2509 39.6079Z" fill="#FF0000"/>
<path d="M17.8613 27.8153H8.29002C7.71655 27.8153 7.52539 27.6605 7.43555 27.0775C7.30556 26.248 7.28071 25.4109 7.21189 24.5757C7.10867 23.3104 7.00736 22.0432 6.8984 20.778C6.82385 19.8796 6.73974 18.9813 6.65945 18.083C6.55814 16.9649 6.453 15.8487 6.35169 14.7306C6.27013 13.8323 6.18857 12.934 6.10701 12.0357C6.06304 11.5579 6.01716 11.0801 5.98658 10.6042C5.97511 10.4131 5.8585 10.3748 5.70175 10.3462C4.42737 10.1117 3.14662 9.87344 1.8595 9.63134C1.58387 9.59293 1.33101 9.45737 1.14648 9.24909C1.08796 9.19125 1.04485 9.1197 1.02106 9.04094C0.997272 8.96219 0.99357 8.87873 1.01029 8.79818C1.02701 8.71763 1.06362 8.64254 1.11679 8.57975C1.16996 8.51697 1.23799 8.46848 1.3147 8.4387C1.59822 8.32321 1.91177 8.30375 2.2074 8.38328C3.26641 8.57441 4.32542 8.75024 5.38061 8.94519C5.53736 8.97386 5.53927 8.89168 5.57177 8.7942C5.68646 8.49031 5.84703 8.22082 6.21214 8.19024C6.57725 8.15966 6.86972 8.4215 6.92134 8.85345C6.95574 9.13823 7.07235 9.2166 7.34762 9.25291C8.59014 9.40964 9.82692 9.60076 11.0637 9.7766L14.7205 10.2926L18.0754 10.7705L21.3862 11.2349C22.4853 11.3916 23.5864 11.5541 24.6875 11.707C25.8344 11.8675 26.9814 12.0185 28.1283 12.1772C28.3462 12.2078 28.5661 12.2402 28.7801 12.2899C28.9486 12.3101 29.1026 12.395 29.2096 12.5266C29.3166 12.6582 29.3682 12.8262 29.3536 12.9952C29.3559 13.7682 29.292 14.54 29.1625 15.3021C29.0248 16.3215 28.8853 17.3408 28.7438 18.3602C28.5852 19.5069 28.4246 20.6537 28.2736 21.8005C28.199 22.3739 28.1608 22.9339 28.0824 23.4977C27.9849 24.1896 27.7097 24.4266 26.9947 24.4533C26.406 24.4706 25.8153 24.4706 25.2246 24.4706L9.15405 24.4591C8.51176 24.4591 8.46397 24.5202 8.52514 25.1663C8.56146 25.56 8.58631 25.9575 8.58823 26.3532C8.58823 26.5806 8.68763 26.6418 8.89025 26.6246C8.99921 26.6246 9.112 26.6246 9.22287 26.6246H27.4784C28.2851 26.6246 28.3252 26.6685 28.2698 27.4713C28.273 27.5124 28.2675 27.5537 28.2538 27.5926C28.2402 27.6315 28.2185 27.6671 28.1902 27.6972C28.162 27.7272 28.1278 27.751 28.0898 27.7671C28.0518 27.7831 28.0109 27.7911 27.9696 27.7904C27.6112 27.8216 27.2512 27.8319 26.8915 27.821H17.8613V27.8153ZM13.1378 14.3618H13.1148C13.1148 15.0441 13.1244 15.7264 13.1148 16.4068C13.1148 16.619 13.1741 16.6668 13.3748 16.6687C14.6728 16.6935 15.9707 16.7222 17.2687 16.7662C17.5 16.7662 17.5611 16.7088 17.5669 16.4814C17.5975 15.2849 17.6402 14.0885 17.695 12.892C17.695 12.7257 17.672 12.6741 17.5038 12.6531C16.1466 12.4792 14.7894 12.3014 13.436 12.1045C13.176 12.0682 13.132 12.1332 13.1378 12.3721C13.1492 13.0411 13.1378 13.6986 13.1378 14.3618ZM10.4042 14.2452H10.4272C10.4272 13.5265 10.4176 12.8079 10.4272 12.0893C10.4272 11.8981 10.3679 11.8427 10.1939 11.8083C9.44079 11.6592 8.68763 11.5025 7.93638 11.3324C7.74522 11.2884 7.71273 11.2999 7.72993 11.5101C7.82551 12.5919 7.89815 13.6737 7.98035 14.7593C8.02431 15.3098 8.07401 15.8583 8.11798 16.4088C8.12754 16.5483 8.16768 16.6152 8.33016 16.6152C8.93804 16.6152 9.54592 16.6286 10.1519 16.6534C10.3545 16.6534 10.4042 16.5884 10.4023 16.403C10.4004 15.6806 10.4042 14.9619 10.4042 14.2452ZM15.2787 19.419V19.4037C14.6345 19.4037 13.9884 19.4037 13.3442 19.4037C13.2085 19.4037 13.1244 19.4037 13.1225 19.5949C13.1225 20.4511 13.0995 21.315 13.0709 22.1636C13.0709 22.3662 13.1511 22.3873 13.3117 22.3873C14.5829 22.3873 15.856 22.3968 17.1349 22.4121C17.326 22.4121 17.3834 22.3433 17.3853 22.1579C17.3967 21.3182 17.4146 20.4798 17.4388 19.6426C17.4388 19.4745 17.3929 19.4209 17.2228 19.4248C16.569 19.4228 15.9248 19.419 15.2787 19.419ZM22.6784 16.8082V16.8197C22.7242 16.8159 22.7703 16.8159 22.816 16.8197C23.0703 16.8713 23.162 16.7795 23.1773 16.5139C23.2251 15.5945 23.292 14.6771 23.3685 13.7597C23.3914 13.496 23.2959 13.4195 23.0531 13.3775C22.2254 13.2647 21.3996 13.1347 20.568 13.0067C20.2431 12.957 20.2259 12.9608 20.2106 13.2972C20.1609 14.3637 20.1169 15.4321 20.0653 16.4986C20.0653 16.6343 20.0863 16.6897 20.2393 16.7031C21.0593 16.7375 21.8698 16.7757 22.6784 16.8082ZM20.0596 20.7875H20.0481C20.0481 21.229 20.0481 21.6724 20.0481 22.1139C20.0481 22.2439 20.0653 22.3165 20.224 22.3051C21.044 22.3051 21.8641 22.3051 22.6842 22.3051C22.8313 22.3051 22.8753 22.2477 22.8753 22.1139C22.9078 21.3036 22.9384 20.4932 22.9919 19.6847C23.0091 19.4401 22.9365 19.3674 22.6975 19.3617C21.887 19.3464 21.0765 19.3158 20.266 19.2795C20.0959 19.2795 20.0634 19.333 20.0749 19.4821C20.0634 19.9217 20.0596 20.3536 20.0596 20.7875ZM10.5342 20.9098H10.4902C10.4902 20.4683 10.4902 20.0268 10.4902 19.5853C10.4902 19.4228 10.4291 19.3827 10.2819 19.3789C9.81354 19.3674 9.3433 19.3579 8.87687 19.3235C8.68572 19.3101 8.63984 19.3636 8.65131 19.5452C8.71248 20.4537 8.76728 21.3622 8.8157 22.2707C8.8157 22.4102 8.8654 22.4618 9.00686 22.4618C9.44843 22.4465 9.89001 22.4331 10.3316 22.4389C10.5227 22.4389 10.5399 22.3643 10.5361 22.2076C10.5285 21.7737 10.5342 21.3418 10.5342 20.9098ZM25.5228 20.8984C25.5228 21.3131 25.4387 21.7279 25.4273 22.1426C25.4158 22.5574 25.4024 22.5841 25.8478 22.6376C25.9027 22.6432 25.9571 22.6534 26.0103 22.6682C26.2014 22.7198 26.3429 22.5994 26.3505 22.3834C26.3792 21.5272 26.3754 20.7302 26.406 19.8739C26.4289 19.1916 26.4194 19.1897 25.7293 19.1935C25.7109 19.1954 25.6923 19.1954 25.6738 19.1935C25.5458 19.1725 25.519 19.2394 25.5209 19.3521C25.5247 19.8682 25.5228 20.3842 25.5228 20.8984ZM25.7541 15.2754C25.7541 15.6806 25.6738 16.0857 25.6605 16.489C25.6605 16.64 25.7121 16.6572 25.8325 16.6553C26.2301 16.6553 26.6258 16.6553 27.0215 16.6668C27.1783 16.6668 27.226 16.6152 27.2394 16.4642C27.3025 15.778 27.3675 15.0919 27.4497 14.4076C27.4688 14.2452 27.4038 14.1974 27.2719 14.1687C26.8342 14.0732 26.3926 13.9891 25.9587 13.8744C25.7809 13.8285 25.7522 13.8744 25.7541 14.033C25.756 14.4478 25.7541 14.8625 25.7541 15.2754Z" fill="#FF0000"/>
<path d="M9.90528 33.9639C9.34419 33.9639 8.79572 33.7974 8.32933 33.4855C7.86293 33.1737 7.49959 32.7304 7.28531 32.2119C7.07103 31.6935 7.01545 31.1231 7.12561 30.573C7.23577 30.0229 7.50672 29.5179 7.90413 29.1218C8.30155 28.7258 8.80757 28.4566 9.35811 28.3483C9.90865 28.2401 10.4789 28.2976 10.9968 28.5135C11.5146 28.7295 11.9567 29.0943 12.267 29.5617C12.5774 30.0291 12.742 30.578 12.7401 31.139C12.7331 31.8877 12.4319 32.6036 11.9015 33.1321C11.3711 33.6607 10.6541 33.9594 9.90528 33.9639Z" fill="#FF0000"/>
<path d="M24.0758 33.2644C23.6531 33.2644 23.24 33.139 22.8887 32.904C22.5374 32.6691 22.2637 32.3352 22.1024 31.9447C21.941 31.5541 21.8991 31.1245 21.9821 30.7102C22.0652 30.2958 22.2693 29.9154 22.5687 29.6172C22.868 29.3189 23.2492 29.1162 23.6639 29.0347C24.0786 28.9532 24.5082 28.9965 24.8982 29.1593C25.2882 29.322 25.6212 29.5969 25.8549 29.949C26.0886 30.301 26.2125 30.7145 26.211 31.1371C26.2045 31.7006 25.9772 32.2391 25.578 32.6368C25.1787 33.0346 24.6394 33.2599 24.0758 33.2644Z" fill="#FF0000"/>
<path d="M123.724 19.4362V19.2451C123.724 16.9044 123.724 14.5631 123.724 12.2211C123.724 12.0128 123.762 11.9402 123.992 11.9421C130.896 11.9421 137.802 11.9421 144.709 11.9421C144.862 11.9421 144.986 11.9192 144.984 12.1562C144.984 14.5242 144.984 16.8942 144.984 19.2623C144.977 19.3025 144.967 19.342 144.954 19.3808L139.644 12.5824C139.628 12.7735 139.613 12.9073 139.609 13.0392C139.546 14.7899 139.489 16.5387 139.418 18.2895C139.336 20.5639 139.244 22.8383 139.162 25.1128C139.112 26.4755 139.07 27.8382 139.024 29.201C139.005 29.8164 139.005 29.8164 138.407 29.8164C135.236 29.8164 132.064 29.8164 128.891 29.8164C128.644 29.8164 128.599 29.7533 128.6 29.5144C128.642 25.553 128.677 21.5896 128.704 17.6243C128.715 16.0112 128.704 14.3981 128.704 12.762C127.062 14.9906 125.42 17.2204 123.776 19.4515L123.724 19.4362Z" fill="#FF0000"/>
<path d="M75.3288 18.3181L73.92 17.5536C73.8225 17.5001 73.7288 17.4562 73.6294 17.395C73.423 17.2555 73.3637 17.2975 73.3637 17.5498C73.3637 19.5509 73.3637 21.552 73.3637 23.5512C73.3637 23.6277 73.3121 23.7424 73.4077 23.7749C73.5033 23.8074 73.5377 23.7213 73.5988 23.685L75.1721 22.7294C75.2524 22.8078 75.2218 22.8861 75.2218 22.953C75.2218 25.2198 75.2218 27.4885 75.2218 29.7553C75.2218 29.9579 75.1874 30.0343 74.958 30.0343C68.92 30.0101 62.8813 29.9929 56.842 29.9827C56.5763 29.9827 56.5954 29.8508 56.5935 29.6807C56.5833 26.9055 56.5712 24.1304 56.5572 21.3552C56.5444 18.3315 56.5266 15.3085 56.5037 12.2861C56.5037 12.0262 56.5744 11.9727 56.821 11.9727C62.8794 11.9803 68.9372 11.9803 74.9943 11.9727C75.26 11.9727 75.3269 12.0338 75.325 12.3014C75.3116 14.2012 75.325 16.0991 75.325 17.999L75.3288 18.3181ZM72.9986 24.1915L66.7554 20.9194V29.3291L72.9986 24.1915ZM66.6904 20.4951L72.9527 17.0873C70.85 15.5066 68.7702 13.949 66.6904 12.3913V20.4951Z" fill="#FF0000"/>
<path d="M120.646 18.3029L118.721 17.2669V23.8284L120.589 22.7007V23.0218C120.589 25.2618 120.589 27.5019 120.589 29.7419C120.589 29.9808 120.539 30.0458 120.291 30.0439C114.262 30.0197 108.233 30.0018 102.204 29.9903C101.967 29.9903 101.944 29.9043 101.942 29.7075C101.916 24.0845 101.888 18.4615 101.856 12.8385C101.856 12.6263 101.856 12.4142 101.844 12.202C101.831 12.0262 101.903 11.9689 102.066 11.988C102.112 11.988 102.158 11.988 102.205 11.988C108.252 11.988 114.3 11.988 120.348 11.988C120.61 11.988 120.69 12.0491 120.69 12.3205C120.677 14.2184 120.69 16.1183 120.69 18.0162C120.706 18.114 120.69 18.2141 120.646 18.3029ZM112.063 20.9022C112.079 23.7194 112.063 26.4927 112.113 29.3118L118.341 24.1877L112.063 20.9022ZM118.297 17.0796L112.016 12.3741C112.016 15.0995 112.016 17.7696 112.071 20.4779L118.297 17.0796Z" fill="#FF0000"/>
<path d="M87.0397 20.8669C87.0397 23.8773 87.0397 26.8876 87.0397 29.898C87.0397 30.1453 86.9978 30.2317 86.7568 30.2317C83.8261 30.2212 80.8948 30.2212 77.963 30.2317C77.7481 30.2317 77.6643 30.1924 77.6643 29.9137C77.6725 23.8747 77.6725 17.835 77.6643 11.7947C77.6643 11.5355 77.7324 11.4845 77.949 11.4845C80.8622 11.4845 83.7772 11.4845 86.6817 11.4845C87.031 11.4845 87.031 11.406 87.031 11.8595C87.0392 14.8646 87.0421 17.8671 87.0397 20.8669Z" fill="#FF0000"/>
<path d="M96.0693 20.82C97.9579 21.4546 99.0571 22.7523 99.4604 24.6426C99.7204 25.8715 99.5503 27.0508 98.7933 28.0829C98.0765 29.0576 97.1149 29.6482 95.8762 29.6769C93.8767 29.7228 91.8753 29.7457 89.8758 29.7801C89.6178 29.7801 89.3597 29.7935 89.1016 29.8069C88.9621 29.8069 88.8914 29.7706 88.9105 29.6157C88.9134 29.5604 88.9134 29.5048 88.9105 29.4495C88.9105 23.699 88.9105 17.9474 88.9105 12.1944C88.9105 11.9364 88.9774 11.8771 89.2278 11.879C91.4586 11.879 93.6894 11.879 95.9183 11.8905C96.7648 11.8846 97.5838 12.1909 98.2186 12.7509C98.8534 13.3108 99.2595 14.0851 99.3591 14.9256C99.5498 16.1072 99.3433 17.3187 98.7718 18.3704C98.2004 19.4221 97.2964 20.2547 96.2012 20.7378C96.1555 20.7623 96.1115 20.7898 96.0693 20.82Z" fill="#FF0000"/>
<path d="M36.6539 17.9703C36.6921 16.3973 37.2006 14.9122 38.4259 13.7234C39.2254 12.9646 40.2458 12.48 41.3391 12.3397C41.7329 12.2785 42.1305 12.3014 42.5243 12.2747C42.6925 12.2657 42.8607 12.2907 43.019 12.3482C43.1773 12.4056 43.3224 12.4944 43.4457 12.6091C45.8772 14.5816 48.3138 16.5477 50.7555 18.5074C51.6234 19.2069 52.5218 19.8701 53.3533 20.6098C54.6265 21.7393 55.3031 23.1556 55.1464 24.893C55.0716 25.6188 54.8238 26.3162 54.4238 26.9266C53.9501 27.6948 53.371 28.3928 52.7034 29.0003C51.3768 30.1757 50.1304 30.3229 48.5381 29.5431C47.6167 29.092 46.8502 28.4307 46.0531 27.8077C43.5164 25.8218 41.0103 23.794 38.4393 21.8502C37.1451 20.8774 36.6787 19.6006 36.6539 17.9703Z" fill="#FF0000"/>
<path d="M53.6478 19.3483L44.9826 12.009C45.0552 11.9364 45.1221 11.965 45.1738 11.965C47.8997 11.965 50.6268 11.965 53.3553 11.965C53.5808 11.965 53.6458 12.0166 53.6458 12.2498C53.6363 14.5242 53.6458 16.8006 53.6458 19.0769L53.6478 19.3483Z" fill="#FF0000"/>
<path d="M36.7399 22.8154L45.3745 30.128C45.3286 30.2293 45.2541 30.1891 45.2005 30.1891C42.453 30.1891 39.7073 30.1891 36.9636 30.1891C36.8087 30.1891 36.7112 30.1891 36.7112 29.9789C36.7189 27.6203 36.7189 25.2631 36.7112 22.9071C36.7179 22.8757 36.7275 22.845 36.7399 22.8154Z" fill="#FF0000"/>
<path d="M73.1687 4.92578H1.93405C1.827 4.92578 1.71995 4.92578 1.6129 4.92578C1.54724 4.92555 1.48229 4.91217 1.42189 4.88642C1.36149 4.86067 1.30687 4.82308 1.26125 4.77586C1.21563 4.72864 1.17993 4.67276 1.15628 4.61151C1.13263 4.55027 1.1215 4.48491 1.12354 4.41929C1.12354 3.4509 1.12354 2.48316 1.12354 1.51605C1.12099 1.45015 1.13158 1.38441 1.15469 1.32265C1.17781 1.26089 1.21299 1.20434 1.25818 1.15631C1.30337 1.10828 1.35767 1.06972 1.41791 1.04289C1.47816 1.01605 1.54314 1.00147 1.60908 1C1.67981 1 1.75054 1 1.82318 1H144.507C145.08 1 145.214 1.13952 145.214 1.73011C145.214 2.54241 145.214 3.35279 145.214 4.16509C145.214 4.80345 145.092 4.9296 144.484 4.9296H73.1687V4.92578Z" stroke="#FF0000" stroke-miterlimit="10"/>
<path d="M73.2509 39.6079H2.01816C1.37396 39.6079 1.23633 39.4646 1.23633 38.809C1.23633 37.9974 1.23633 37.1863 1.23633 36.3759C1.23633 35.8637 1.42749 35.6802 1.92832 35.6802H144.61C145.157 35.6802 145.325 35.8503 145.325 36.4065V38.8912C145.325 39.4283 145.151 39.6022 144.619 39.6022L73.2509 39.6079Z" stroke="#FF0000" stroke-miterlimit="10"/>
<path d="M17.8613 27.8153H8.29002C7.71655 27.8153 7.52539 27.6605 7.43555 27.0775C7.30556 26.248 7.28071 25.4109 7.21189 24.5757C7.10867 23.3104 7.00736 22.0432 6.8984 20.778C6.82385 19.8796 6.73974 18.9813 6.65945 18.083C6.55814 16.9649 6.453 15.8487 6.35169 14.7306C6.27013 13.8323 6.18857 12.934 6.10701 12.0357C6.06304 11.5579 6.01716 11.0801 5.98658 10.6042C5.97511 10.4131 5.8585 10.3748 5.70175 10.3462C4.42737 10.1117 3.14662 9.87344 1.8595 9.63134C1.58387 9.59293 1.33101 9.45737 1.14648 9.24909C1.08796 9.19125 1.04485 9.1197 1.02106 9.04094C0.997272 8.96219 0.99357 8.87873 1.01029 8.79818C1.02701 8.71763 1.06362 8.64254 1.11679 8.57975C1.16996 8.51697 1.23799 8.46848 1.3147 8.4387C1.59822 8.32321 1.91177 8.30375 2.2074 8.38328C3.26641 8.57441 4.32542 8.75024 5.38061 8.94519C5.53736 8.97386 5.53927 8.89168 5.57177 8.7942C5.68646 8.49031 5.84703 8.22082 6.21214 8.19024C6.57725 8.15966 6.86972 8.4215 6.92134 8.85345C6.95574 9.13823 7.07235 9.2166 7.34762 9.25291C8.59014 9.40964 9.82692 9.60076 11.0637 9.7766L14.7205 10.2926L18.0754 10.7705L21.3862 11.2349C22.4853 11.3916 23.5864 11.5541 24.6875 11.707C25.8344 11.8675 26.9814 12.0185 28.1283 12.1772C28.3462 12.2078 28.5661 12.2402 28.7802 12.2899C28.9486 12.3101 29.1025 12.395 29.2096 12.5266C29.3166 12.6582 29.3682 12.8262 29.3536 12.9952C29.3559 13.7682 29.292 14.54 29.1625 15.3021C29.0248 16.3215 28.8853 17.3408 28.7438 18.3602C28.5852 19.5069 28.4246 20.6537 28.2736 21.8005C28.199 22.3739 28.1608 22.9339 28.0824 23.4977C27.9849 24.1896 27.7097 24.4266 26.9947 24.4533C26.406 24.4705 25.8153 24.4706 25.2246 24.4706L9.15405 24.4591C8.51176 24.4591 8.46397 24.5202 8.52514 25.1663C8.56146 25.56 8.58631 25.9575 8.58823 26.3532C8.58823 26.5806 8.68763 26.6418 8.89025 26.6246C8.99921 26.6246 9.112 26.6246 9.22287 26.6246H27.4784C28.2851 26.6246 28.3252 26.6685 28.2698 27.4713C28.273 27.5124 28.2675 27.5537 28.2538 27.5926C28.2401 27.6315 28.2185 27.6671 28.1902 27.6972C28.162 27.7272 28.1278 27.751 28.0898 27.7671C28.0518 27.7831 28.0109 27.7911 27.9696 27.7904C27.6112 27.8216 27.2512 27.8319 26.8915 27.821H17.8613V27.8153ZM13.1378 14.3618H13.1148C13.1148 15.0441 13.1244 15.7264 13.1148 16.4068C13.1148 16.619 13.1741 16.6668 13.3748 16.6687C14.6728 16.6935 15.9707 16.7222 17.2687 16.7662C17.5 16.7662 17.5611 16.7088 17.5669 16.4814C17.5975 15.2849 17.6402 14.0885 17.695 12.892C17.695 12.7257 17.672 12.6741 17.5038 12.6531C16.1466 12.4792 14.7894 12.3014 13.436 12.1045C13.176 12.0682 13.132 12.1332 13.1378 12.3721C13.1492 13.0411 13.1378 13.6986 13.1378 14.3618ZM10.4042 14.2452H10.4272C10.4272 13.5265 10.4176 12.8079 10.4272 12.0893C10.4272 11.8981 10.3679 11.8427 10.1939 11.8083C9.44079 11.6592 8.68763 11.5025 7.93638 11.3324C7.74522 11.2884 7.71273 11.2999 7.72993 11.5101C7.82551 12.5919 7.89815 13.6737 7.98035 14.7593C8.02431 15.3098 8.07401 15.8583 8.11798 16.4088C8.12754 16.5483 8.16768 16.6152 8.33016 16.6152C8.93804 16.6152 9.54592 16.6286 10.1519 16.6534C10.3545 16.6534 10.4042 16.5884 10.4023 16.403C10.4004 15.6806 10.4042 14.9619 10.4042 14.2452ZM15.2787 19.419V19.4037C14.6345 19.4037 13.9884 19.4037 13.3442 19.4037C13.2085 19.4037 13.1244 19.4037 13.1225 19.5949C13.1225 20.4511 13.0995 21.315 13.0709 22.1636C13.0709 22.3662 13.1511 22.3873 13.3117 22.3873C14.5829 22.3873 15.856 22.3968 17.1349 22.4121C17.326 22.4121 17.3834 22.3433 17.3853 22.1579C17.3967 21.3182 17.4146 20.4798 17.4388 19.6426C17.4388 19.4745 17.3929 19.4209 17.2228 19.4248C16.569 19.4228 15.9248 19.419 15.2787 19.419ZM22.6784 16.8082V16.8197C22.7242 16.8159 22.7703 16.8159 22.816 16.8197C23.0703 16.8713 23.162 16.7795 23.1773 16.5139C23.2251 15.5945 23.292 14.6771 23.3685 13.7597C23.3914 13.496 23.2959 13.4195 23.0531 13.3775C22.2254 13.2647 21.3996 13.1347 20.568 13.0067C20.2431 12.957 20.2259 12.9608 20.2106 13.2972C20.1609 14.3637 20.1169 15.4321 20.0653 16.4986C20.0653 16.6343 20.0863 16.6897 20.2393 16.7031C21.0593 16.7375 21.8698 16.7757 22.6784 16.8082V16.8082ZM20.0596 20.7875H20.0481C20.0481 21.229 20.0481 21.6724 20.0481 22.1139C20.0481 22.2439 20.0653 22.3165 20.224 22.3051C21.044 22.3051 21.8641 22.3051 22.6842 22.3051C22.8313 22.3051 22.8753 22.2477 22.8753 22.1139C22.9078 21.3036 22.9384 20.4932 22.9919 19.6847C23.0091 19.4401 22.9365 19.3674 22.6975 19.3617C21.887 19.3464 21.0765 19.3158 20.266 19.2795C20.0959 19.2795 20.0634 19.333 20.0749 19.4821C20.0634 19.9217 20.0596 20.3536 20.0596 20.7875V20.7875ZM10.5342 20.9098H10.4902C10.4902 20.4683 10.4902 20.0268 10.4902 19.5853C10.4902 19.4228 10.4291 19.3827 10.2819 19.3789C9.81354 19.3674 9.3433 19.3579 8.87687 19.3235C8.68572 19.3101 8.63984 19.3636 8.65131 19.5452C8.71248 20.4537 8.76728 21.3622 8.8157 22.2707C8.8157 22.4102 8.8654 22.4618 9.00686 22.4618C9.44843 22.4465 9.89001 22.4331 10.3316 22.4389C10.5227 22.4389 10.5399 22.3643 10.5361 22.2076C10.5285 21.7737 10.5342 21.3418 10.5342 20.9098V20.9098ZM25.5228 20.8984C25.5228 21.3131 25.4387 21.7279 25.4273 22.1426C25.4158 22.5574 25.4024 22.5841 25.8478 22.6376C25.9027 22.6432 25.9571 22.6534 26.0103 22.6682C26.2014 22.7198 26.3429 22.5994 26.3505 22.3834C26.3792 21.5272 26.3754 20.7302 26.406 19.8739C26.4289 19.1916 26.4194 19.1897 25.7293 19.1935C25.7109 19.1954 25.6923 19.1954 25.6738 19.1935C25.5458 19.1725 25.519 19.2394 25.5209 19.3521C25.5247 19.8682 25.5228 20.3842 25.5228 20.8984V20.8984ZM25.7541 15.2754C25.7541 15.6806 25.6738 16.0857 25.6605 16.489C25.6605 16.64 25.7121 16.6572 25.8325 16.6553C26.2301 16.6553 26.6258 16.6553 27.0215 16.6668C27.1783 16.6668 27.226 16.6152 27.2394 16.4642C27.3025 15.778 27.3675 15.0919 27.4497 14.4076C27.4688 14.2452 27.4038 14.1974 27.2719 14.1687C26.8342 14.0732 26.3926 13.9891 25.9587 13.8744C25.7809 13.8285 25.7522 13.8744 25.7541 14.033C25.756 14.4478 25.7541 14.8625 25.7541 15.2754V15.2754Z" stroke="#FF0000" stroke-miterlimit="10"/>
<path d="M9.90528 33.9639C9.34419 33.9639 8.79572 33.7974 8.32933 33.4855C7.86293 33.1737 7.49959 32.7304 7.28531 32.2119C7.07103 31.6935 7.01545 31.1231 7.12561 30.573C7.23577 30.0229 7.50672 29.5179 7.90413 29.1218C8.30155 28.7258 8.80757 28.4566 9.35811 28.3483C9.90865 28.2401 10.4789 28.2976 10.9968 28.5135C11.5146 28.7295 11.9567 29.0943 12.267 29.5617C12.5774 30.0291 12.742 30.578 12.7401 31.139C12.7331 31.8877 12.4319 32.6036 11.9015 33.1321C11.3711 33.6607 10.6541 33.9594 9.90528 33.9639V33.9639Z" stroke="#FF0000" stroke-miterlimit="10"/>
<path d="M24.0758 33.2644C23.6531 33.2644 23.24 33.139 22.8887 32.904C22.5374 32.6691 22.2637 32.3352 22.1024 31.9447C21.941 31.5541 21.8991 31.1245 21.9821 30.7102C22.0652 30.2958 22.2693 29.9154 22.5687 29.6172C22.868 29.3189 23.2492 29.1162 23.6639 29.0347C24.0786 28.9532 24.5082 28.9965 24.8982 29.1593C25.2882 29.322 25.6212 29.5969 25.8549 29.949C26.0886 30.301 26.2125 30.7145 26.211 31.1371C26.2045 31.7006 25.9772 32.2391 25.578 32.6368C25.1787 33.0346 24.6394 33.2599 24.0758 33.2644V33.2644Z" stroke="#FF0000" stroke-miterlimit="10"/>
<path d="M123.724 19.4362V19.2451C123.724 16.9044 123.724 14.5631 123.724 12.2211C123.724 12.0128 123.762 11.9402 123.992 11.9421C130.896 11.9421 137.802 11.9421 144.709 11.9421C144.862 11.9421 144.986 11.9192 144.984 12.1562C144.984 14.5242 144.984 16.8942 144.984 19.2623C144.977 19.3025 144.967 19.342 144.954 19.3808L139.644 12.5824C139.628 12.7735 139.613 12.9073 139.609 13.0392C139.546 14.7899 139.489 16.5387 139.418 18.2895C139.336 20.5639 139.244 22.8383 139.162 25.1128C139.112 26.4755 139.07 27.8382 139.024 29.201C139.005 29.8164 139.005 29.8164 138.407 29.8164C135.236 29.8164 132.064 29.8164 128.891 29.8164C128.644 29.8164 128.599 29.7533 128.6 29.5144C128.642 25.553 128.677 21.5896 128.704 17.6243C128.715 16.0112 128.704 14.3981 128.704 12.762C127.062 14.9906 125.42 17.2204 123.776 19.4515L123.724 19.4362Z" stroke="#FF0000" stroke-miterlimit="10"/>
<path d="M75.3288 18.3181L73.92 17.5536C73.8225 17.5001 73.7288 17.4562 73.6294 17.395C73.423 17.2555 73.3637 17.2975 73.3637 17.5498C73.3637 19.5509 73.3637 21.552 73.3637 23.5512C73.3637 23.6277 73.3121 23.7424 73.4077 23.7749C73.5033 23.8074 73.5377 23.7213 73.5988 23.685L75.1721 22.7294C75.2524 22.8078 75.2218 22.8861 75.2218 22.953C75.2218 25.2198 75.2218 27.4885 75.2218 29.7553C75.2218 29.9579 75.1874 30.0343 74.958 30.0343C68.92 30.0101 62.8813 29.9929 56.842 29.9827C56.5763 29.9827 56.5954 29.8508 56.5935 29.6807C56.5833 26.9055 56.5712 24.1304 56.5572 21.3552C56.5444 18.3315 56.5266 15.3085 56.5037 12.2861C56.5037 12.0262 56.5744 11.9727 56.821 11.9727C62.8794 11.9803 68.9372 11.9803 74.9943 11.9727C75.26 11.9727 75.3269 12.0338 75.325 12.3014C75.3116 14.2012 75.325 16.0991 75.325 17.999L75.3288 18.3181ZM72.9986 24.1915L66.7554 20.9194V29.3291L72.9986 24.1915ZM66.6904 20.4951L72.9527 17.0873C70.85 15.5066 68.7702 13.949 66.6904 12.3913V20.4951Z" stroke="#FF0000" stroke-miterlimit="10"/>
<path d="M120.646 18.3029L118.721 17.2669V23.8284L120.589 22.7007V23.0218C120.589 25.2618 120.589 27.5019 120.589 29.7419C120.589 29.9808 120.539 30.0458 120.291 30.0439C114.262 30.0197 108.233 30.0018 102.204 29.9903C101.967 29.9903 101.944 29.9043 101.942 29.7075C101.916 24.0845 101.888 18.4615 101.856 12.8385C101.856 12.6263 101.856 12.4142 101.844 12.202C101.831 12.0262 101.903 11.9689 102.066 11.988C102.112 11.988 102.158 11.988 102.205 11.988C108.252 11.988 114.3 11.988 120.348 11.988C120.61 11.988 120.69 12.0491 120.69 12.3205C120.677 14.2184 120.69 16.1183 120.69 18.0162C120.706 18.114 120.69 18.2141 120.646 18.3029V18.3029ZM112.063 20.9022C112.079 23.7194 112.063 26.4927 112.113 29.3118L118.341 24.1877L112.063 20.9022ZM118.297 17.0796L112.016 12.3741C112.016 15.0995 112.016 17.7696 112.071 20.4779L118.297 17.0796Z" stroke="#FF0000" stroke-miterlimit="10"/>
<path d="M96.0693 20.82C97.9579 21.4546 99.0571 22.7523 99.4604 24.6426C99.7204 25.8715 99.5503 27.0508 98.7933 28.0829C98.0765 29.0576 97.1149 29.6482 95.8762 29.6769C93.8767 29.7228 91.8753 29.7457 89.8758 29.7801C89.6178 29.7801 89.3597 29.7935 89.1016 29.8069C88.9621 29.8069 88.8914 29.7706 88.9105 29.6157C88.9134 29.5603 88.9134 29.5048 88.9105 29.4495C88.9105 23.699 88.9105 17.9474 88.9105 12.1944C88.9105 11.9364 88.9774 11.8771 89.2278 11.879C91.4586 11.879 93.6894 11.879 95.9183 11.8905C96.7648 11.8846 97.5838 12.1909 98.2186 12.7509C98.8534 13.3108 99.2595 14.0851 99.3591 14.9256C99.5498 16.1072 99.3433 17.3187 98.7718 18.3704C98.2004 19.4221 97.2964 20.2547 96.2012 20.7378C96.1555 20.7623 96.1115 20.7898 96.0693 20.82V20.82Z" stroke="#FF0000" stroke-miterlimit="10"/>
<path d="M36.6539 17.9703C36.6921 16.3973 37.2006 14.9122 38.4259 13.7234C39.2254 12.9646 40.2458 12.48 41.3391 12.3397C41.7329 12.2785 42.1305 12.3014 42.5243 12.2747C42.6925 12.2657 42.8607 12.2907 43.019 12.3482C43.1773 12.4056 43.3224 12.4944 43.4457 12.6091C45.8772 14.5816 48.3138 16.5477 50.7555 18.5074C51.6234 19.2069 52.5218 19.8701 53.3534 20.6098C54.6265 21.7393 55.3031 23.1556 55.1464 24.893C55.0716 25.6188 54.8238 26.3162 54.4238 26.9266C53.9501 27.6948 53.371 28.3928 52.7034 29.0003C51.3768 30.1757 50.1304 30.3229 48.5381 29.5431C47.6167 29.092 46.8502 28.4307 46.0531 27.8077C43.5164 25.8218 41.0103 23.794 38.4393 21.8502C37.1451 20.8774 36.6787 19.6006 36.6539 17.9703Z" stroke="#FF0000" stroke-miterlimit="10"/>
<path d="M53.6478 19.3483L44.9826 12.009C45.0552 11.9364 45.1221 11.965 45.1738 11.965C47.8997 11.965 50.6268 11.965 53.3553 11.965C53.5808 11.965 53.6458 12.0166 53.6458 12.2498C53.6363 14.5242 53.6458 16.8006 53.6458 19.0769L53.6478 19.3483Z" stroke="#FF0000" stroke-miterlimit="10"/>
<path d="M36.7399 22.8154L45.3745 30.128C45.3286 30.2293 45.2541 30.1891 45.2005 30.1891C42.453 30.1891 39.7073 30.1891 36.9636 30.1891C36.8087 30.1891 36.7112 30.1891 36.7112 29.9789C36.7189 27.6203 36.7189 25.2631 36.7112 22.9071C36.7179 22.8757 36.7275 22.845 36.7399 22.8154V22.8154Z" stroke="#FF0000" stroke-miterlimit="10"/>
</svg>
