<svg width="40" height="40" viewBox="0 0 40 40" fill="none" xmlns="http://www.w3.org/2000/svg">
<rect y="0.00012207" width="40" height="40" rx="5" fill="#E6E6E6"/>
<path d="M26.6183 16.9981H25.5258L22.6698 12.0001L21.3341 12.7634L23.7539 16.9981H15.6337L18.0542 12.7634L16.7178 12.0001L13.8618 16.9981H12.7693C12.6511 16.9982 12.5344 17.0256 12.4284 17.078C12.3225 17.1305 12.23 17.2067 12.1582 17.3006C12.0864 17.3946 12.0372 17.5039 12.0144 17.6199C11.9916 17.7359 11.9959 17.8557 12.0268 17.9698L14.1804 25.8668C14.2699 26.1921 14.4636 26.4791 14.7318 26.6838C15 26.8885 15.3279 26.9996 15.6653 27.0001H23.7231C24.414 27.0001 25.0249 26.5346 25.208 25.8653L27.3615 17.969C27.3929 17.8549 27.3973 17.735 27.3747 17.6188C27.352 17.5026 27.3027 17.3932 27.2308 17.2992C27.1588 17.2052 27.0661 17.1291 26.9598 17.0768C26.8536 17.0246 26.7367 16.9976 26.6183 16.9981ZM23.7223 25.4613V26.2307V25.4613H15.6653L13.7772 18.5368H25.6104L23.7223 25.4613Z" fill="#FF0000"/>
<path d="M17.3856 20.0757H18.9244V23.9226H17.3856V20.0757ZM20.4632 20.0757H22.002V23.9226H20.4632V20.0757Z" fill="#FF0000"/>
</svg>
