<svg width="15" height="15" viewBox="0 0 15 15" fill="none" xmlns="http://www.w3.org/2000/svg">
<path d="M7.94985 0L7.74927 0.179426L0.439593 7.56985L0 8.01072L0.440234 8.4721L6.5279 14.5598L6.98928 15L7.43143 14.5598L14.8199 7.25008L14.9987 7.04887V0H7.94985ZM8.49069 1.28161H13.7171V6.50803L6.98864 13.1968L1.80195 8.01008L8.49069 1.28161ZM11.7947 2.56323C11.6247 2.56323 11.4617 2.63074 11.3416 2.75091C11.2214 2.87109 11.1539 3.03408 11.1539 3.20403C11.1539 3.37399 11.2214 3.53698 11.3416 3.65715C11.4617 3.77733 11.6247 3.84484 11.7947 3.84484C11.9646 3.84484 12.1276 3.77733 12.2478 3.65715C12.368 3.53698 12.4355 3.37399 12.4355 3.20403C12.4355 3.03408 12.368 2.87109 12.2478 2.75091C12.1276 2.63074 11.9646 2.56323 11.7947 2.56323Z" fill="#686D76"/>
</svg>
