<svg width="21" height="20" viewBox="0 0 21 20" fill="none" xmlns="http://www.w3.org/2000/svg">
<path d="M19.4911 6.66393H18.0344L14.2264 0L12.4455 1.01764L15.6718 6.66393H4.84499L8.07232 1.01764L6.29041 0L2.48245 6.66393H1.02574C0.868068 6.66411 0.712549 6.70059 0.571244 6.77055C0.429938 6.84051 0.306642 6.94208 0.210913 7.06737C0.115183 7.19266 0.0495925 7.33831 0.0192248 7.49304C-0.011143 7.64776 -0.00547178 7.8074 0.0357984 7.95958L2.90716 18.4889C3.02652 18.9226 3.28478 19.3053 3.64238 19.5782C3.99998 19.8511 4.4372 19.9993 4.88705 20H15.6308C16.552 20 17.3665 19.3794 17.6107 18.4869L20.482 7.95856C20.5238 7.80632 20.5298 7.64649 20.4995 7.49156C20.4693 7.33663 20.4036 7.19079 20.3077 7.06544C20.2117 6.94008 20.0881 6.83862 19.9464 6.76897C19.8048 6.69932 19.6489 6.66337 19.4911 6.66393ZM15.6298 17.9483V18.9741V17.9483H4.88705L2.36961 8.71563H18.1472L15.6298 17.9483Z" fill="#686D76"/>
<path d="M7.18091 10.7673H9.23261V15.8966H7.18091V10.7673ZM11.2843 10.7673H13.336V15.8966H11.2843V10.7673Z" fill="#686D76"/>
</svg>
