<svg width="16" height="15" viewBox="0 0 16 15" fill="none" xmlns="http://www.w3.org/2000/svg">
<path d="M14.6183 4.99795H13.5258L10.6698 0L9.33414 0.763234L11.7539 4.99795H3.63374L6.05424 0.763234L4.71781 0L1.86184 4.99795H0.769309C0.651051 4.99808 0.534412 5.02544 0.428433 5.07791C0.322454 5.13038 0.229982 5.20656 0.158185 5.30053C0.0863876 5.39449 0.0371944 5.50373 0.0144186 5.61978C-0.00835723 5.73582 -0.00410383 5.85555 0.0268488 5.96969L2.18037 13.8667C2.26989 14.192 2.46359 14.479 2.73179 14.6837C2.99999 14.8884 3.3279 14.9995 3.66529 15H11.7231C12.414 15 13.0249 14.5345 13.208 13.8652L15.3615 5.96892C15.3929 5.85474 15.3973 5.73487 15.3747 5.61867C15.352 5.50247 15.3027 5.39309 15.2308 5.29908C15.1588 5.20506 15.0661 5.12896 14.9598 5.07673C14.8536 5.02449 14.7367 4.99753 14.6183 4.99795ZM11.7223 13.4612V14.2306V13.4612H3.66529L1.77721 6.53673H13.6104L11.7223 13.4612Z" fill="white"/>
<path d="M5.38574 8.0755H6.92452V11.9224H5.38574V8.0755ZM8.4633 8.0755H10.0021V11.9224H8.4633V8.0755Z" fill="white"/>
</svg>
